<?xml version="1.0" encoding="utf-8"?>
<svg viewBox="0 0 500 500" xmlns="http://www.w3.org/2000/svg">
  <defs/>
  <g transform="matrix(1.172729, 0, 0, 1.289488, -10.146671, 9.569115)" style="">
    <path d="M29.9,207.4l-4.4,7.7L29.9,207.4z M29.9,101.4v106l0,0l-4.4,7.7v5.5h192.9v-5.5l-4.4-8l0,0V101.2h-5.9V59h-3.9V46.4&#10;&#9;&#9;&#9;c1.9-1.8,2.8-4.4,2.7-7c0-6-4.9-10.9-10.9-10.9s-10.9,4.9-10.9,10.9c0,2.7,1.1,5.3,3,7.2V59h-4v42.4h-23.4V64.2l1.1-2.5h-79&#10;&#9;&#9;&#9;l1.1,2.5V95l0,0v6.4H59.4V58.9h-3.8V46.3c1.9-1.8,3-4.3,2.9-7c0-6-4.9-10.9-10.9-10.9s-10.9,4.9-10.9,10.9c0,2.7,1.1,5.3,2.9,7.2&#10;&#9;&#9;&#9;V59H36v42.5h-6.1V101.4z M23.3,104.9l-4.1-3.6H19V95h10.9V58.8l0,0v-6.4h3.5v-2.8c-1.6-3-2.6-6.4-2.8-9.8c0-8.5,6-15.7,14.3-17.3&#10;&#9;&#9;&#9;v-1.7c-0.7-0.8-1.1-1.7-1.1-2.8c0-1.3,0.6-2.5,1.6-3.2L46.6,3c-0.1-0.2-0.1-0.4,0-0.6c0-0.7,0.6-1.3,1.3-1.3s1.3,0.6,1.4,1.3&#10;&#9;&#9;&#9;c0.1,0.2,0.1,0.4,0,0.6l0.8,11.8c1.1,0.7,1.8,1.9,1.8,3.3c0,1.1-0.4,2.1-1.2,2.8v1.7c8.4,1.4,14.6,8.7,14.6,17.3&#10;&#9;&#9;&#9;c-0.2,3.5-1.2,7-2.9,10.1v2.8h3.7v6.4l0,0v36.2h11.8V65.3L74.4,62v-5l3.5-1.7l0,0l2-3.8h4.9l3.7,3.8h18.3l3.3-3.5h4.9l3.4,3.5h8&#10;&#9;&#9;&#9;l3.3-3.5h4.9l3.3,3.5h19.2l3.6-3.8h4.4l1.8,3.7l3.7,1.7v4.9l-3.5,3.3V95h11V52.6h3.8v-3c-1.6-3-2.5-6.4-2.7-9.8&#10;&#9;&#9;&#9;c0.1-8.3,6-15.3,14.1-17v-1.7c-1.6-1.6-1.5-4.1,0-5.6c0.2-0.2,0.4-0.4,0.6-0.5l1.3-11.9c0-0.2,0-0.4,0-0.6&#10;&#9;&#9;&#9;c0.1-0.7,0.7-1.2,1.4-1.2s1.3,0.6,1.3,1.3c0,0.2,0,0.4,0,0.6l1,11.7c1,0.7,1.6,1.9,1.6,3.2c0,1-0.4,2.1-1.2,2.8v1.7&#10;&#9;&#9;&#9;c8.3,1.6,14.3,8.8,14.3,17.3c-0.2,3.5-1.2,7-2.9,10.1v2.9h3.9v42H225v6.4h-0.5l-4,3.6v35.8h4.3v6l-4.3,3.7V175h4.3v6l-4.3,3.7&#10;&#9;&#9;&#9;v22.4l0,0l4.3,4v9.6l0,0v6.4H19v-6.5l0,0V211l4.3-3.7l0,0v-22.5l-4.3-3.7v-6h4.3v-24.6l-4.3-3.7v-6h4.3V104.9z" style="fill: rgb(255, 255, 255);"/>
  </g>
  <path d="M 196.05 187.717 C 182.753 187.683 174.404 201.604 181.021 212.774 C 183.083 216.251 186.368 218.895 190.276 220.227 L 190.276 229.646 C 190.276 249.012 168.625 261.117 151.303 251.434 C 143.267 246.939 138.312 238.631 138.312 229.646 L 138.312 226.342 C 154.964 223.609 167.152 209.655 167.18 193.307 L 167.18 159.763 C 167.18 156.672 164.594 154.173 161.408 154.173 L 149.861 154.173 C 145.414 154.173 142.637 158.831 144.86 162.559 C 145.893 164.286 147.8 165.354 149.861 165.354 L 155.633 165.354 L 155.633 193.307 C 155.633 210.521 136.39 221.278 120.992 212.673 C 113.849 208.675 109.443 201.297 109.443 193.307 L 109.443 165.354 L 115.218 165.354 C 119.663 165.354 122.44 160.691 120.218 156.968 C 119.19 155.235 117.278 154.173 115.218 154.173 L 103.67 154.173 C 100.482 154.173 97.896 156.672 97.896 159.763 L 97.896 193.307 C 97.924 209.655 110.119 223.609 126.765 226.342 L 126.765 229.646 C 126.765 257.617 158.042 275.104 183.059 261.117 C 194.671 254.626 201.823 242.627 201.823 229.646 L 201.823 220.227 C 214.37 215.954 217.442 200.133 207.344 191.747 C 204.203 189.137 200.197 187.706 196.05 187.717 Z M 196.05 210.08 C 191.605 210.08 188.827 205.416 191.05 201.693 C 193.272 197.965 198.828 197.965 201.049 201.693 C 201.558 202.543 201.823 203.504 201.823 204.488 C 201.818 207.575 199.237 210.074 196.05 210.08 Z" style="fill: rgb(255, 255, 255);"/>
</svg>