<?xml version="1.0" encoding="utf-8"?>
<svg version="1.1" id="Layer_1" x="0px" y="0px" viewBox="0 0 800 330" style="enable-background:new 0 0 800 330;" xmlns="http://www.w3.org/2000/svg">
  <defs/>
  <g id="logo-campus-virtual" transform="matrix(1, 0, 0, 1, -3.10192, -6.596195)">
    <g transform="matrix(1.172729, 0, 0, 1.289488, -13.263838, 11.856138)" style="">
      <path d="M29.9,207.4l-4.4,7.7L29.9,207.4z M29.9,101.4v106l0,0l-4.4,7.7v5.5h192.9v-5.5l-4.4-8l0,0V101.2h-5.9V59h-3.9V46.4&#10;&#9;&#9;&#9;c1.9-1.8,2.8-4.4,2.7-7c0-6-4.9-10.9-10.9-10.9s-10.9,4.9-10.9,10.9c0,2.7,1.1,5.3,3,7.2V59h-4v42.4h-23.4V64.2l1.1-2.5h-79&#10;&#9;&#9;&#9;l1.1,2.5V95l0,0v6.4H59.4V58.9h-3.8V46.3c1.9-1.8,3-4.3,2.9-7c0-6-4.9-10.9-10.9-10.9s-10.9,4.9-10.9,10.9c0,2.7,1.1,5.3,2.9,7.2&#10;&#9;&#9;&#9;V59H36v42.5h-6.1V101.4z M23.3,104.9l-4.1-3.6H19V95h10.9V58.8l0,0v-6.4h3.5v-2.8c-1.6-3-2.6-6.4-2.8-9.8c0-8.5,6-15.7,14.3-17.3&#10;&#9;&#9;&#9;v-1.7c-0.7-0.8-1.1-1.7-1.1-2.8c0-1.3,0.6-2.5,1.6-3.2L46.6,3c-0.1-0.2-0.1-0.4,0-0.6c0-0.7,0.6-1.3,1.3-1.3s1.3,0.6,1.4,1.3&#10;&#9;&#9;&#9;c0.1,0.2,0.1,0.4,0,0.6l0.8,11.8c1.1,0.7,1.8,1.9,1.8,3.3c0,1.1-0.4,2.1-1.2,2.8v1.7c8.4,1.4,14.6,8.7,14.6,17.3&#10;&#9;&#9;&#9;c-0.2,3.5-1.2,7-2.9,10.1v2.8h3.7v6.4l0,0v36.2h11.8V65.3L74.4,62v-5l3.5-1.7l0,0l2-3.8h4.9l3.7,3.8h18.3l3.3-3.5h4.9l3.4,3.5h8&#10;&#9;&#9;&#9;l3.3-3.5h4.9l3.3,3.5h19.2l3.6-3.8h4.4l1.8,3.7l3.7,1.7v4.9l-3.5,3.3V95h11V52.6h3.8v-3c-1.6-3-2.5-6.4-2.7-9.8&#10;&#9;&#9;&#9;c0.1-8.3,6-15.3,14.1-17v-1.7c-1.6-1.6-1.5-4.1,0-5.6c0.2-0.2,0.4-0.4,0.6-0.5l1.3-11.9c0-0.2,0-0.4,0-0.6&#10;&#9;&#9;&#9;c0.1-0.7,0.7-1.2,1.4-1.2s1.3,0.6,1.3,1.3c0,0.2,0,0.4,0,0.6l1,11.7c1,0.7,1.6,1.9,1.6,3.2c0,1-0.4,2.1-1.2,2.8v1.7&#10;&#9;&#9;&#9;c8.3,1.6,14.3,8.8,14.3,17.3c-0.2,3.5-1.2,7-2.9,10.1v2.9h3.9v42H225v6.4h-0.5l-4,3.6v35.8h4.3v6l-4.3,3.7V175h4.3v6l-4.3,3.7&#10;&#9;&#9;&#9;v22.4l0,0l4.3,4v9.6l0,0v6.4H19v-6.5l0,0V211l4.3-3.7l0,0v-22.5l-4.3-3.7v-6h4.3v-24.6l-4.3-3.7v-6h4.3V104.9z" style="fill: rgb(255, 255, 255);"/>
    </g>
    <g transform="matrix(1, 0, 0, 1, -12.721564, 61.216763)">
      <path d="M283.6,141.5v84.2h13.8v-37.1h38.3v-12.4h-38.3v-22.5h43.7v-12.3L283.6,141.5L283.6,141.5z M353,141.5v84.2h14.1v-84&#10;&#9;&#9;&#9;L353,141.5z M422.2,139.5c-25,0-40.4,16.6-40.4,44.4s15.4,44.4,40.4,44.4s40.4-16.7,40.4-44.4&#10;&#9;&#9;&#9;C462.6,156.3,447.1,139.5,422.2,139.5z M422.2,151.7c16.2,0,26.2,11.6,26.2,32.2s-10,32.2-26.2,32.2S396,204.3,396,183.9&#10;&#9;&#9;&#9;C395.9,163.4,406,151.7,422.2,151.7z M548.1,168.1c-1.5-17.5-14.4-28.5-34.9-28.5c-24.9,0-39.8,16.4-39.8,44.4&#10;&#9;&#9;&#9;s14.7,44.4,38.8,44.4c21,0,35.6-13.5,36.3-32.6h-13.7c-0.6,11.6-10.4,20.5-22,19.9c0,0,0,0-0.1,0c-15.3,0-25.1-12-25.1-32.3&#10;&#9;&#9;&#9;s9.2-31.5,25.3-31.5c12.1,0,19.8,5.8,21.3,15.7L548.1,168.1z M562.1,141.8v83.9h14V191h21c11.1,0,12.9,4.7,13.3,13.5l0.5,10.1&#10;&#9;&#9;&#9;c-0.1,3.8,0.6,7.6,2.1,11.1h15.7v-2.3c-3.2-1.7-3.3-4.8-3.5-9.7l-0.7-12.1c-0.5-9.1-2.1-14.3-10.1-16.8&#10;&#9;&#9;&#9;c7.8-3.2,12.7-11.1,12.1-19.6c1-12-7.9-22.5-19.9-23.5c-1.3-0.1-2.6-0.1-3.8,0c-0.5,0-2,0-4.5,0L562.1,141.8z M575.9,153.7h20.4&#10;&#9;&#9;&#9;c10.5,0,16.2,3,16.2,12.8c0,9.7-5.2,13.1-16.5,13.1h-20v-26.2v0.3H575.9z M642,141.8v52.9c0,22,11.3,33.4,33.3,33.4&#10;&#9;&#9;&#9;c21,0,33.4-11.7,33.4-33.4v-53.2h-14.1V194c0,14.3-6,21.3-19.3,21.3s-19.2-7-19.2-21.3v-52.5L642,141.8z M722.2,141.8v11.9h46.3&#10;&#9;&#9;&#9;L719.4,214v11.7h65.3v-12.4h-48.2l48.5-59.6v-12.3L722.2,141.8z" style="fill: rgb(255, 255, 255);"/>
    </g>
    <g/>
    <text style="fill: rgb(255, 255, 255); font-family: Arial, sans-serif; font-size: 37px; font-weight: 700; white-space: pre;" transform="matrix(2.359019, 0, 0, 2.557086, -343.900848, -73.439468)" x="253.589" y="88.833">TELESAUDE</text>
    <text style="white-space: pre; fill: rgb(51, 51, 51); font-family: Arial, sans-serif; font-size: 28px;" x="350.272" y="133.954"> </text>
    <path d="M 189.9 193.018 C 176.603 192.984 168.254 206.905 174.871 218.075 C 176.933 221.552 180.218 224.196 184.126 225.528 L 184.126 234.947 C 184.126 254.313 162.475 266.418 145.153 256.735 C 137.117 252.24 132.162 243.932 132.162 234.947 L 132.162 231.643 C 148.814 228.91 161.002 214.956 161.03 198.608 L 161.03 165.064 C 161.03 161.973 158.444 159.474 155.258 159.474 L 143.711 159.474 C 139.264 159.474 136.487 164.132 138.71 167.86 C 139.743 169.587 141.65 170.655 143.711 170.655 L 149.483 170.655 L 149.483 198.608 C 149.483 215.822 130.24 226.579 114.842 217.974 C 107.699 213.976 103.293 206.598 103.293 198.608 L 103.293 170.655 L 109.068 170.655 C 113.513 170.655 116.29 165.992 114.068 162.269 C 113.04 160.536 111.128 159.474 109.068 159.474 L 97.52 159.474 C 94.332 159.474 91.746 161.973 91.746 165.064 L 91.746 198.608 C 91.774 214.956 103.969 228.91 120.615 231.643 L 120.615 234.947 C 120.615 262.918 151.892 280.405 176.909 266.418 C 188.521 259.927 195.673 247.928 195.673 234.947 L 195.673 225.528 C 208.22 221.255 211.292 205.434 201.194 197.048 C 198.053 194.438 194.047 193.007 189.9 193.018 Z M 189.9 215.381 C 185.455 215.381 182.677 210.717 184.9 206.994 C 187.122 203.266 192.678 203.266 194.899 206.994 C 195.408 207.844 195.673 208.805 195.673 209.789 C 195.668 212.876 193.087 215.375 189.9 215.381 Z" style="fill: rgb(255, 255, 255);"/>
  </g>
</svg>